<?xml version="1.0" encoding="UTF-8"?>
<!-- Generator: Adobe Illustrator 16.0.0, SVG Export Plug-In . SVG Version: 6.00 Build 0)  -->
<!DOCTYPE svg PUBLIC "-//W3C//DTD SVG 1.1//EN" "http://www.w3.org/Graphics/SVG/1.1/DTD/svg11.dtd">
<svg version="1.1" id="圖層_1" xmlns="http://www.w3.org/2000/svg" xmlns:xlink="http://www.w3.org/1999/xlink" x="0px" y="0px" width="24px" height="24px" viewBox="0 0 24 24" enable-background="new 0 0 24 24" xml:space="preserve">
<g>
	<g>
		<path fill="#60BFB6" d="M4.701,7.909l0.446,0.111c0.006,0.002,0.945,0.214,2.104-0.39c0.305-0.158,0.669-0.376,1.055-0.608    c1.342-0.805,2.863-1.717,3.958-1.466c1.017,0.233,4.7,1.513,5.19,2.213l-0.588,0.411c-0.305-0.396-3.425-1.619-4.763-1.925    c-0.814-0.186-2.325,0.72-3.428,1.382C8.281,7.875,7.907,8.1,7.583,8.268c-0.902,0.47-1.698,0.528-2.164,0.505L4.701,7.909z"/>
	</g>
	<path fill="#60BFB6" d="M17.513,7.513c-1.87,0-3.521,0.937-4.511,2.366l1.408-0.41c0,0,1.389-0.314,1.729,1.074   c0.341,1.388-1.074,1.886-1.074,1.886l-3.023,0.956c0.198,2.85,2.571,5.101,5.471,5.101c3.031,0,5.487-2.457,5.487-5.486   C23,9.969,20.544,7.513,17.513,7.513z"/>
	<text transform="matrix(1 0 0 1 15.4141 15.6377)" fill="#FFFFFF" font-family="'DFYuanStd-W7-B5pc-H'" font-size="7.7979">$</text>
	<path fill="#60BFB6" d="M8.199,15.518c-0.018,0-0.035,0-0.053,0c-2.061-0.027-3.339-2.081-3.392-2.169   c-0.104-0.169-0.05-0.39,0.119-0.493c0.169-0.103,0.39-0.05,0.493,0.119c0.011,0.018,1.128,1.803,2.789,1.825   c0.014,0,0.029,0,0.042,0c1.643,0,2.5-1.271,2.508-1.285c0.045-0.068,0.113-0.12,0.192-0.145l4.06-1.284   c0.102-0.036,1.087-0.427,0.834-1.458c-0.249-1.016-1.193-0.833-1.301-0.81l-4.484,1.305c-0.189,0.056-0.389-0.054-0.445-0.244   c-0.055-0.19,0.054-0.39,0.244-0.445l4.505-1.31c0.62-0.141,1.842-0.035,2.178,1.333c0.33,1.349-0.708,2.101-1.304,2.311   l-3.958,1.251C10.946,14.384,9.935,15.518,8.199,15.518z"/>
	<g>
		<polygon fill="#60BFB6" points="5.419,13.521 1,13.521 1,12.803 4.701,12.803 4.701,7.916 1.157,7.916 1.157,7.198 5.419,7.198       "/>
	</g>
</g>
</svg>