<?xml version="1.0" encoding="utf-8"?>
<!-- Generator: Adobe Illustrator 16.0.0, SVG Export Plug-In . SVG Version: 6.00 Build 0)  -->
<!DOCTYPE svg PUBLIC "-//W3C//DTD SVG 1.1//EN" "http://www.w3.org/Graphics/SVG/1.1/DTD/svg11.dtd">
<svg version="1.1" id="圖層_1" xmlns="http://www.w3.org/2000/svg" xmlns:xlink="http://www.w3.org/1999/xlink" x="0px" y="0px"
	 width="24px" height="24px" viewBox="0 0 24 24" enable-background="new 0 0 24 24" xml:space="preserve">
<g>
	<path fill="#666666" d="M5.722,13.535c0.231,0,0.429,0.078,0.592,0.238c0.163,0.158,0.245,0.356,0.245,0.588
		c0,0.232-0.082,0.433-0.245,0.6c-0.163,0.165-0.362,0.247-0.592,0.247c-0.233,0-0.431-0.082-0.594-0.247
		c-0.163-0.167-0.245-0.367-0.245-0.6c0-0.23,0.082-0.43,0.245-0.588C5.292,13.613,5.489,13.535,5.722,13.535z"/>
	<path fill="#666666" d="M10.927,11.811c-0.146-0.143-0.292-0.256-0.443-0.334c-0.151-0.077-0.326-0.117-0.527-0.117
		c-0.189,0-0.355,0.04-0.5,0.117c-0.144,0.079-0.264,0.184-0.363,0.316c-0.098,0.131-0.173,0.28-0.226,0.443
		c-0.053,0.163-0.081,0.329-0.081,0.497c0,0.184,0.029,0.354,0.085,0.515c0.058,0.16,0.137,0.301,0.24,0.424
		c0.104,0.122,0.231,0.218,0.381,0.286c0.15,0.068,0.32,0.105,0.508,0.105c0.182,0,0.351-0.043,0.509-0.125
		c0.157-0.08,0.294-0.188,0.414-0.32v1.271c-0.182,0.103-0.367,0.174-0.556,0.217c-0.188,0.045-0.382,0.065-0.583,0.065
		c-0.338,0-0.652-0.065-0.936-0.196c-0.285-0.134-0.532-0.312-0.739-0.533c-0.208-0.221-0.37-0.481-0.485-0.777
		C7.508,13.37,7.45,13.057,7.45,12.725c0-0.345,0.06-0.668,0.179-0.969c0.12-0.302,0.285-0.564,0.499-0.786
		c0.213-0.223,0.466-0.398,0.759-0.526c0.292-0.129,0.612-0.193,0.964-0.193c0.182,0,0.366,0.024,0.551,0.071
		c0.185,0.047,0.359,0.122,0.522,0.22L10.927,11.811L10.927,11.811z"/>
	<path fill="#666666" d="M14.09,10.249c0.358,0,0.686,0.062,0.982,0.183c0.298,0.123,0.556,0.293,0.767,0.509
		c0.213,0.217,0.379,0.478,0.499,0.782c0.12,0.305,0.18,0.635,0.18,0.992c0,0.357-0.058,0.688-0.172,0.988
		c-0.117,0.3-0.283,0.561-0.498,0.775c-0.212,0.217-0.467,0.387-0.765,0.51c-0.3,0.119-0.631,0.184-0.993,0.184
		c-0.363,0-0.695-0.063-0.992-0.184c-0.299-0.123-0.554-0.293-0.768-0.51c-0.214-0.215-0.378-0.477-0.495-0.775
		c-0.117-0.301-0.174-0.631-0.174-0.988c0-0.357,0.06-0.688,0.179-0.992c0.118-0.305,0.284-0.565,0.499-0.782
		c0.213-0.216,0.468-0.387,0.767-0.509C13.402,10.311,13.73,10.249,14.09,10.249z M14.09,11.416c-0.17,0-0.322,0.038-0.456,0.113
		c-0.137,0.074-0.25,0.174-0.345,0.295c-0.096,0.123-0.166,0.262-0.217,0.419c-0.051,0.156-0.075,0.313-0.075,0.471
		s0.024,0.312,0.075,0.466c0.051,0.153,0.121,0.291,0.217,0.414c0.095,0.122,0.208,0.223,0.345,0.297
		c0.134,0.074,0.285,0.11,0.456,0.11c0.17,0,0.321-0.036,0.456-0.11c0.136-0.074,0.25-0.175,0.345-0.297
		c0.094-0.123,0.164-0.26,0.217-0.414c0.05-0.154,0.074-0.31,0.074-0.466c0-0.155-0.024-0.314-0.074-0.471
		c-0.053-0.157-0.123-0.296-0.217-0.419c-0.095-0.121-0.209-0.222-0.345-0.295C14.411,11.454,14.259,11.416,14.09,11.416z"/>
	<path fill="#666666" d="M18.691,10.813h0.02c0.125-0.182,0.291-0.322,0.501-0.419c0.206-0.098,0.415-0.146,0.629-0.146
		c0.591,0,1.033,0.241,1.328,0.724c0.146-0.226,0.339-0.402,0.579-0.53c0.241-0.129,0.498-0.193,0.768-0.193
		c0.295,0,0.537,0.052,0.726,0.155c0.188,0.104,0.337,0.242,0.446,0.415c0.109,0.172,0.188,0.372,0.23,0.602
		c0.045,0.229,0.064,0.469,0.064,0.72v2.88h-1.317v-2.43c0-0.112-0.001-0.243-0.004-0.391c-0.003-0.147-0.024-0.289-0.062-0.424
		c-0.039-0.134-0.1-0.247-0.185-0.338c-0.086-0.091-0.21-0.137-0.371-0.137c-0.183,0-0.321,0.054-0.415,0.161
		s-0.163,0.235-0.206,0.386c-0.045,0.151-0.069,0.311-0.075,0.476c-0.006,0.167-0.009,0.309-0.009,0.427v2.27H20.02v-2.345
		c0-0.112,0-0.247,0-0.404c0-0.157-0.018-0.308-0.057-0.452c-0.038-0.146-0.1-0.267-0.188-0.368
		c-0.09-0.101-0.219-0.152-0.389-0.152c-0.182,0-0.322,0.054-0.416,0.161c-0.099,0.107-0.168,0.235-0.207,0.386
		c-0.041,0.151-0.063,0.311-0.066,0.476c-0.004,0.167-0.006,0.31-0.006,0.428v2.268h-1.317v-4.621h1.317v0.416l0,0V10.813z"/>
	<g>
		<rect x="-0.017" y="6.471" fill="#666666" width="0.479" height="11.33"/>
	</g>
</g>
</svg>
