<?xml version="1.0" encoding="UTF-8"?>
<!-- Generator: Adobe Illustrator 16.0.0, SVG Export Plug-In . SVG Version: 6.00 Build 0)  -->
<!DOCTYPE svg PUBLIC "-//W3C//DTD SVG 1.1//EN" "http://www.w3.org/Graphics/SVG/1.1/DTD/svg11.dtd">
<svg version="1.1" id="圖層_1" xmlns="http://www.w3.org/2000/svg" xmlns:xlink="http://www.w3.org/1999/xlink" x="0px" y="0px" width="24px" height="24px" viewBox="0 0 24 24" enable-background="new 0 0 24 24" xml:space="preserve">
<g>
	<path fill="#666666" d="M6.574,12.787l-0.353,0.352c-0.142,0.141-0.142,0.354,0,0.496c0.071,0.07,0.16,0.105,0.248,0.105   c0.088,0,0.177-0.035,0.248-0.105l0.354-0.355c0.141-0.141,0.141-0.352,0-0.491C6.928,12.641,6.716,12.641,6.574,12.787   L6.574,12.787z"/>
	<path fill="#666666" d="M9.035,7.014c0-0.974-0.797-1.77-1.771-1.77c-0.974,0-1.771,0.796-1.771,1.77   c0,0.974,0.796,1.77,1.771,1.77C8.238,8.783,9.035,7.986,9.035,7.014L9.035,7.014z M7.266,8.075c-0.585,0-1.063-0.478-1.063-1.063   c0-0.582,0.478-1.063,1.063-1.063c0.583,0,1.062,0.479,1.062,1.063C8.327,7.598,7.848,8.075,7.266,8.075L7.266,8.075z"/>
	<path fill="#666666" d="M17.887,3.119H5.141c-0.973,0-1.77,0.796-1.77,1.77v0.619L1.317,6.076c-0.46,0.123-0.85,0.406-1.081,0.814   c-0.23,0.405-0.3,0.884-0.177,1.344l2.479,9.243c0.124,0.457,0.408,0.848,0.814,1.08c0.266,0.155,0.584,0.245,0.885,0.245   c0.159,0,0.303-0.018,0.46-0.053l8.108-2.176h2.649c0.108-0.222,0.211-0.451,0.287-0.709h-10.6c-0.585,0-1.063-0.479-1.063-1.062   V4.889c0-0.583,0.478-1.063,1.063-1.063h12.746c0.584,0,1.062,0.478,1.062,1.063v5.026l-1.681-1.682   c-0.283-0.282-0.709-0.282-0.992,0l-4.053,4.036l-0.018-0.017l-2.054-2.055c-0.264-0.266-0.726-0.266-0.99,0l-1.734,1.734   c-0.142,0.142-0.142,0.355,0,0.496c0.142,0.142,0.354,0.142,0.496,0l1.735-1.734l2.053,2.054l0.018,0.019l-1.434,1.434   c-0.142,0.141-0.142,0.352,0,0.496c0.071,0.07,0.16,0.104,0.249,0.104s0.178-0.034,0.25-0.104l5.982-5.967l2.105,2.106   c0.018,0.018,0.053,0.035,0.069,0.054v2.5c0.239,0,0.473,0,0.71,0v-8.5C19.658,3.915,18.859,3.119,17.887,3.119z M5.141,16.572   h4.921l-5.541,1.486c-0.284,0.067-0.567,0.034-0.815-0.107c-0.248-0.141-0.425-0.371-0.496-0.654L0.732,8.059   C0.662,7.774,0.697,7.49,0.838,7.243C0.98,6.995,1.211,6.818,1.495,6.748l1.876-0.515V14.8C3.371,15.775,4.167,16.572,5.141,16.572   z"/>
	<path fill="#666666" d="M18.205,15.174h-0.256v0.533h0.256c0.146,0,0.266-0.119,0.266-0.266   C18.471,15.293,18.352,15.174,18.205,15.174L18.205,15.174z"/>
	<path fill="#666666" d="M22.534,14.424v-2.063h-2.062l-1.464-1.465l-1.465,1.465H15.48v2.071l-1.463,1.457l1.463,1.465v2.065h2.069   l1.459,1.461l1.464-1.467h2.068v-2.062L24,15.889L22.534,14.424z M17.042,15.707c0.097,0,0.179,0.082,0.179,0.182   c0,0.101-0.078,0.178-0.179,0.178h-0.524v0.713c0,0.099-0.08,0.181-0.18,0.181c-0.102,0-0.18-0.08-0.18-0.181V15   c0-0.098,0.078-0.182,0.18-0.182h0.703c0.098,0,0.18,0.082,0.18,0.182c0,0.098-0.08,0.18-0.18,0.18h-0.525v0.531h0.527   L17.042,15.707L17.042,15.707z M18.73,16.918c-0.051,0.023-0.186,0.025-0.24-0.082l-0.393-0.771h-0.15v0.713   c0,0.101-0.081,0.181-0.18,0.181c-0.101,0-0.181-0.078-0.181-0.181v-1.778c0-0.099,0.08-0.181,0.181-0.181h0.436   c0.342,0,0.622,0.279,0.622,0.623c0,0.248-0.146,0.466-0.358,0.564l0.342,0.67C18.852,16.764,18.82,16.873,18.73,16.918   L18.73,16.918z M20.177,15.707c0.099,0,0.179,0.082,0.179,0.182c0,0.101-0.078,0.178-0.179,0.178H19.65V16.6h0.525   c0.098,0,0.178,0.08,0.178,0.18c0,0.099-0.078,0.181-0.178,0.181h-0.703c-0.098,0-0.179-0.08-0.179-0.181V15   c0-0.098,0.079-0.182,0.179-0.182h0.703c0.098,0,0.178,0.082,0.178,0.182c0,0.098-0.078,0.18-0.178,0.18H19.65v0.531h0.525   L20.177,15.707L20.177,15.707z M21.682,15.707c0.096,0,0.178,0.082,0.178,0.182c0,0.101-0.08,0.178-0.178,0.178h-0.525V16.6h0.525   c0.096,0,0.178,0.08,0.178,0.18c0,0.099-0.08,0.181-0.178,0.181h-0.705c-0.098,0-0.18-0.08-0.18-0.181V15   c0-0.098,0.082-0.182,0.18-0.182h0.705c0.096,0,0.178,0.082,0.178,0.182c0,0.098-0.08,0.18-0.178,0.18h-0.525v0.531h0.525V15.707z"/>
</g>
</svg>