<?xml version="1.0" encoding="utf-8"?>
<!-- Generator: Adobe Illustrator 16.0.0, SVG Export Plug-In . SVG Version: 6.00 Build 0)  -->
<!DOCTYPE svg PUBLIC "-//W3C//DTD SVG 1.1//EN" "http://www.w3.org/Graphics/SVG/1.1/DTD/svg11.dtd">
<svg version="1.1" id="圖層_1" xmlns="http://www.w3.org/2000/svg" xmlns:xlink="http://www.w3.org/1999/xlink" x="0px" y="0px"
	 width="24px" height="24px" viewBox="0 0 24 24" enable-background="new 0 0 24 24" xml:space="preserve">
<path fill="#666666" d="M6.309,18.738c-2.901,0-5.261-2.36-5.261-5.262c0-2.693,2.016-4.939,4.69-5.224l0.255-0.027l0.119-0.228
	c1.159-2.226,3.434-3.607,5.936-3.607c3.185,0,5.945,2.267,6.56,5.391l0.072,0.36l0.365,0.026c2.244,0.155,4.002,2.029,4.002,4.266
	c0,2.373-1.93,4.305-4.303,4.305H6.309z"/>
<path fill="#FFFFFF" d="M5.837,9.204C3.65,9.43,2.001,11.267,2.001,13.477c0,2.375,1.932,4.307,4.307,4.307h12.436
	c1.846,0,3.348-1.501,3.348-3.35c0-1.744-1.365-3.198-3.105-3.31l-1.098-0.078L17.674,9.97c-0.533-2.679-2.898-4.624-5.626-4.624
	c-2.144,0-4.092,1.188-5.083,3.1L6.606,9.125L5.837,9.204z"/>
<rect x="10.762" y="16.439" fill="#FFFFFF" width="7.888" height="2.561"/>
<path fill="#666666" d="M9.412,11.133l-3.139,3.131h2.354v2.043h1.569v-2.043h2.354L9.412,11.133z M15.467,17.309v-2.041h-1.568
	v2.041h-2.354l3.14,3.131l3.139-3.131H15.467z M9.412,11.133l-3.139,3.131h2.354v2.043h1.569v-2.043h2.354L9.412,11.133z"/>
</svg>
