<?xml version="1.0" encoding="utf-8"?>
<!-- Generator: Adobe Illustrator 16.0.0, SVG Export Plug-In . SVG Version: 6.00 Build 0)  -->
<!DOCTYPE svg PUBLIC "-//W3C//DTD SVG 1.1//EN" "http://www.w3.org/Graphics/SVG/1.1/DTD/svg11.dtd">
<svg version="1.1" id="圖層_1" xmlns="http://www.w3.org/2000/svg" xmlns:xlink="http://www.w3.org/1999/xlink" x="0px" y="0px"
	 width="24px" height="24px" viewBox="0 0 24 24" enable-background="new 0 0 24 24" xml:space="preserve">
<g>
	<g>
		<path fill="#36BA5B" d="M19.402,3.877h-7.245c-0.602,0-1.097,0.494-1.097,1.097v14.051c0,0.602,0.496,1.098,1.097,1.098h7.245
			c0.604,0,1.098-0.496,1.098-1.098V4.974C20.5,4.371,20.007,3.877,19.402,3.877L19.402,3.877z M14.621,4.668h2.317
			c0.076,0,0.133,0.059,0.133,0.134c0,0.072-0.057,0.132-0.133,0.132h-2.317c-0.074,0-0.133-0.06-0.133-0.132
			C14.488,4.727,14.547,4.668,14.621,4.668L14.621,4.668z M15.78,19.574c-0.304,0-0.548-0.246-0.548-0.549
			c0-0.305,0.244-0.549,0.548-0.549c0.305,0,0.55,0.244,0.55,0.549C16.33,19.328,16.084,19.574,15.78,19.574L15.78,19.574z
			 M19.736,18.09h-7.913V5.617h7.912L19.736,18.09L19.736,18.09z"/>
	</g>
	<g>
		<g>
			<path fill="#36BA5B" d="M4.902,15.391c0.163,0.162,0.425,0.162,0.587,0c0.161-0.162,0.161-0.424,0-0.584
				c-1.547-1.547-1.547-4.065,0-5.614c0.161-0.162,0.161-0.422,0-0.583C5.409,8.528,5.302,8.487,5.197,8.487
				c-0.107,0-0.213,0.041-0.294,0.122C3.032,10.478,3.032,13.518,4.902,15.391L4.902,15.391z"/>
			<path fill="#36BA5B" d="M7.165,14.447c0.163,0.162,0.424,0.162,0.586,0c0.161-0.162,0.161-0.422,0-0.584
				c-0.512-0.514-0.794-1.195-0.794-1.923c0-0.724,0.283-1.405,0.794-1.917c0.161-0.162,0.161-0.425,0-0.586
				C7.67,9.356,7.564,9.315,7.458,9.315c-0.105,0-0.212,0.041-0.292,0.121c-0.668,0.668-1.036,1.56-1.036,2.505
				C6.128,12.887,6.497,13.781,7.165,14.447L7.165,14.447z"/>
		</g>
	</g>
</g>
</svg>
