<?xml version="1.0" encoding="utf-8"?>
<!-- Generator: Adobe Illustrator 16.0.0, SVG Export Plug-In . SVG Version: 6.00 Build 0)  -->
<!DOCTYPE svg PUBLIC "-//W3C//DTD SVG 1.1//EN" "http://www.w3.org/Graphics/SVG/1.1/DTD/svg11.dtd">
<svg version="1.1" id="圖層_1" xmlns="http://www.w3.org/2000/svg" xmlns:xlink="http://www.w3.org/1999/xlink" x="0px" y="0px"
	 width="21.5px" height="21.5px" viewBox="0 0 21.5 21.5" enable-background="new 0 0 21.5 21.5" xml:space="preserve">
<path fill="#E84185" d="M15.821,14.065l-1.611-1.724c-0.321-0.343-0.872-0.35-1.228-0.017l-0.867,0.812
	c-0.052-0.03-0.105-0.063-0.163-0.097c-0.521-0.313-1.234-0.738-1.974-1.528C9.236,10.72,8.857,9.979,8.58,9.438
	C8.55,9.381,8.522,9.327,8.495,9.274l0.581-0.546L9.364,8.46C9.72,8.127,9.748,7.577,9.426,7.235L7.813,5.512
	C7.493,5.169,6.941,5.163,6.586,5.494L6.101,5.952l0.014,0.013C5.95,6.162,5.811,6.391,5.703,6.636
	C5.605,6.871,5.542,7.097,5.509,7.323c-0.281,1.818,0.5,3.514,2.688,5.853c3.027,3.233,5.56,3.08,5.668,3.07
	c0.238-0.02,0.467-0.069,0.701-0.15c0.251-0.088,0.486-0.214,0.692-0.363l0.01,0.01l0.491-0.45
	C16.114,14.958,16.143,14.407,15.821,14.065L15.821,14.065z M15.821,14.065"/>
<g>
	<path fill="#E84185" d="M10.75,21.5C4.822,21.5,0,16.678,0,10.75S4.822,0,10.75,0S21.5,4.822,21.5,10.75S16.678,21.5,10.75,21.5z
		 M10.75,1C5.374,1,1,5.374,1,10.75s4.374,9.75,9.75,9.75s9.75-4.374,9.75-9.75S16.126,1,10.75,1z"/>
</g>
</svg>
