<?xml version="1.0" encoding="UTF-8"?>
<!-- Generator: Adobe Illustrator 16.0.0, SVG Export Plug-In . SVG Version: 6.00 Build 0)  -->
<!DOCTYPE svg PUBLIC "-//W3C//DTD SVG 1.1//EN" "http://www.w3.org/Graphics/SVG/1.1/DTD/svg11.dtd">
<svg version="1.1" id="圖層_1" xmlns="http://www.w3.org/2000/svg" xmlns:xlink="http://www.w3.org/1999/xlink" x="0px" y="0px" width="61.322px" height="28px" viewBox="0 0 61.322 28" enable-background="new 0 0 61.322 28" xml:space="preserve">
<g>
	<g>
		<path fill="#36BA5B" d="M14.39,23.795c0,0.498-0.388,0.887-0.886,0.887H0.858c-0.248,0-0.443-0.111-0.608-0.25    C0.084,24.266,0,24.072,0,23.822V4.149c0-0.498,0.39-0.885,0.886-0.885h3.155c0.499,0,0.885,0.387,0.885,0.885v15.607h8.605    c0.473,0,0.858,0.414,0.858,0.885V23.795L14.39,23.795z"/>
		<path fill="#36BA5B" d="M22.028,23.822c0,0.498-0.39,0.887-0.888,0.887h-3.154c-0.496,0-0.884-0.389-0.884-0.887V4.149    c0-0.498,0.388-0.886,0.884-0.886h3.154c0.498,0,0.888,0.415,0.888,0.886V23.822z"/>
		<path fill="#36BA5B" d="M43.832,23.822c0,0.498-0.388,0.887-0.886,0.887h-3.153c-0.304,0-0.581-0.166-0.719-0.361l-9.023-12.174    V23.85c0,0.498-0.386,0.887-0.884,0.887h-3.154c-0.498,0-0.886-0.389-0.886-0.887V4.177c0-0.498,0.388-0.886,0.886-0.886h3.127    c0.277,0,0.581,0.139,0.719,0.388l9.022,12.175V4.177c0-0.498,0.386-0.886,0.884-0.886h3.154c0.498-0.027,0.913,0.388,0.913,0.858    V23.822z"/>
		<path fill="#36BA5B" d="M61.322,7.304c0,0.498-0.389,0.885-0.887,0.885H51.83v3.321h8.605c0.498,0,0.887,0.387,0.887,0.885v3.181    c0,0.498-0.389,0.887-0.887,0.887H51.83v3.32h8.605c0.498,0,0.887,0.387,0.887,0.885v3.154c0,0.498-0.389,0.887-0.887,0.887    H47.789c-0.498,0-0.884-0.416-0.884-0.887V4.149c0-0.498,0.415-0.886,0.884-0.886h12.646c0.47,0,0.859,0.415,0.887,0.886V7.304z"/>
	</g>
</g>
</svg>