<?xml version="1.0" encoding="utf-8"?>
<!-- Generator: Adobe Illustrator 16.0.0, SVG Export Plug-In . SVG Version: 6.00 Build 0)  -->
<!DOCTYPE svg PUBLIC "-//W3C//DTD SVG 1.1//EN" "http://www.w3.org/Graphics/SVG/1.1/DTD/svg11.dtd">
<svg version="1.1" id="分離模式" xmlns="http://www.w3.org/2000/svg" xmlns:xlink="http://www.w3.org/1999/xlink" x="0px"
	 y="0px" width="270px" height="80px" viewBox="0 0 270 80" enable-background="new 0 0 270 80" xml:space="preserve">
<g>
	<g>
		<g>
			<g>
				<path d="M120.913,49.2c-0.093-0.504-0.291-0.664-0.642-0.326c-0.357,0.355-0.292,0.505-0.53,0.653
					c-0.228,0.139-0.381,0.215-0.577,0.375c-0.209,0.148-0.644,0.178-0.531,0.494c0.115,0.315,0.555,0.355,0.233,0.752
					c-0.321,0.414-0.583,0.791-0.727,0.988c-0.144,0.218-0.173,0.545-0.118,0.791c0.059,0.27-0.179,0.614,0.296,0.596
					c0.46-0.031,0.46,0,0.638-0.417c0.178-0.396-0.024-0.346,0.347-0.84c0.38-0.505,0.38-0.505,0.558-0.614
					c0.179-0.108,0.264-0.326,0.264-0.671c0-0.357-0.264-0.585,0.262-0.665c0.528-0.099,0.262,0.199,0.672-0.218
					C121.468,49.705,120.913,49.2,120.913,49.2z"/>
				<path d="M129.712,26.27c-0.044-0.207-0.153-0.483-0.325-0.82c-4.363-10.404-14.649-17.725-26.653-17.725
					c-15.959,0-28.888,12.937-28.888,28.884c0,15.952,12.929,28.881,28.888,28.881c15.954,0,28.887-12.929,28.887-28.881
					C131.62,32.966,130.939,29.475,129.712,26.27z M122.086,55.954c-4.955,4.966-11.786,8.024-19.353,8.024
					c-7.562,0-14.396-3.059-19.363-8.024c-0.682-0.672-1.324-1.402-1.938-2.155c0.055-0.544,0.114-1.237,0.079-1.612
					c-0.055-0.661-0.495-0.446,0.05-1.05c0.558-0.603,1.107,0.091,0.662-1.057c-0.436-1.158-0.326-0.662-0.436-1.158
					c-0.104-0.514-0.385-0.811-0.227-1.363c0.167-0.545-0.104-0.9-0.158-1.101c-0.055-0.206,0.281-0.403,0.548-0.552
					c0.272-0.16,1.152-0.258,1.152-0.604s0.603-1.158-1.375-2.474c-1.973-1.305-2.363-0.959-2.685-1.81
					c-0.337-0.851-0.555-0.9-1.103-1.504c-0.555-0.603-0.445-0.563-0.604-1.267c-0.163-0.691-0.392-2.602-0.826-3.067
					c-0.445-0.453-0.332-0.998-0.554-1.798c-0.149-0.563-0.114-1.129-0.198-1.416c0.727-4.232,2.423-8.139,4.852-11.462
					c0.376,0.156,1.059,0.385,1.464,0.116c0.589-0.374,1.364-1.395,1.806-1.552c0.431-0.159,0.484-0.207,0.727-0.051
					c0.247,0.16,0.781-0.433,1.122-0.81c0.342-0.375,1.465-1.297,1.757-1.624c0.291-0.315,0.781-0.215,0.825-0.749
					c0.05-0.534,0.392-0.813,1.612-2.157c1.223-1.344,1.563-0.919,1.899-0.693c0.346,0.21,0.44-0.553,0.93-1.028
					c0.484-0.483,1.023-0.919,2.285-1.028c1.267-0.108,0.929-0.316,1.81-0.643c0.875-0.327,3.066-0.051,3.413,0.05
					c0.336,0.117,0.97-0.315,1.898-0.533c0.803-0.2,2.049,0.116,1.01-0.556c2.429,0.04,4.787,0.396,7.019,1.028
					c-0.101,0.061-0.302,0.178-0.752,0.377c-1.049,0.484-0.431,0.672,0.138,0.999c0.573,0.327-0.049,0.524-0.089,0.76
					c-0.049,0.239,0.089,0.378,0.04,0.614c-0.04,0.239-1.138,0.712-1.183,0.85c-0.045,0.149,0.9-0.236,0.045,0.574
					c-0.856,0.813-0.499-0.088-0.702,0.279c-0.218,0.374,0.089,0.573-0.352,0.513c-0.44-0.04-1.034,0.476-0.989-0.059
					c0.044-0.556-0.539-0.693,0.08-0.763c0.617-0.069,0.543-0.108,0.301-0.396c-0.248-0.276-0.782-0.088-1.236-0.266
					c-0.456-0.159-0.737-0.091-0.925-0.316c-0.192-0.239-0.579,0.316-0.944,0.414c-0.372,0.088-0.534-0.236-0.852,0.06
					c-0.321,0.297-0.504,0.544-0.633,0.711c-0.134,0.16-0.172,0.349-0.896,0.694c-0.723,0.355-0.761,0.494-0.766,0.672
					c-0.015,0.178-0.336,0.377-0.405,0.534c-0.069,0.159,0.914,0.515,1.048,0.701c0.123,0.178,0.376,0.515,0.648,0.624
					c0.276,0.099,0.202-0.01,0.414,0.041c0.218,0.039,0.361,0.079,0.441-0.219c0.069-0.316-0.034-0.832,0.152-1.228
					c0.189-0.414,0.293-0.414,0.629-0.829c0.327-0.436,0.731-0.871,0.826-0.643c0.093,0.226-0.53,0.553-0.134,1.058
					c0.385,0.515,0.351,0.712,0.583,1.107c0.212,0.396,0.728,0.346,0.074,0.97c-0.646,0.614-0.445,0.8-0.919,0.771
					c-0.49-0.041-0.614,0.039-0.979,0.198c-0.366,0.179-0.03,0.208-0.866,0.146c-0.826-0.048-1.004-0.266-1.384-0.048
					c-0.382,0.218-0.821,0.218-1.108,0.476c-0.302,0.236-0.232,0.335-0.524,0.513c-0.297,0.159-0.916,0.316-0.935,0.159
					c-0.005-0.021-0.016-0.028-0.016-0.028c0.011-0.032,0.025-0.149,0.055-0.566c0.074-0.85-0.104-0.473-0.059-1.007
					c0.049-0.534,0.123-0.891-0.293-0.773c-0.415,0.12-0.449-0.454-0.935-0.029c-0.489,0.425-0.914,0.988-0.939,1.138
					c-0.02,0.159,0.604-0.316,0.807,0.061c0.203,0.375-0.069,0.968,0.192,1.058c0.262,0.088,0.213,0.505,0.154,0.604
					c-0.06,0.087,0.034,0.355-0.193,0.396c-0.223,0.029-0.771-0.021-0.415,0.218c0.36,0.247,0.296,0.247,0.425,0.723
					c0.133,0.483,0.555,0.781-0.03,0.821c-0.578,0.037-0.762,0.374-1.364,0.374c-0.608,0.02-0.381-0.436-0.955-0.177
					c-0.583,0.257-0.836,0.592-0.821,0.791c0.006,0.197,0.089,0.396,0,0.513c-0.093,0.119-0.325,0.318-0.093,0.743
					c0.227,0.426,0.227,0.651,0.36,0.702c0.148,0.058,0.94-0.138,1.107-0.09c0.159,0.039-0.055,0.147,0.476,0.13
					c0.528-0.021,0.801,0.138,1.073-0.2c0.276-0.355,0.063-0.494,0.331-0.81c0.277-0.346,0-0.414,0.471-0.414
					c0.454,0.018,0.503,0.048,0.681-0.259c0.179-0.315-0.518-0.733,0.214-0.77c0.732-0.04,0.935,0.789,1.315,0.215
					c0.382-0.593-0.307-0.712,0.411-0.89c0.706-0.187,1.137-0.187,1.32-0.077c0.187,0.098,1.271,0.672,1.622,1.046
					c0.355,0.378,1.093,0,1.612-0.079c0.523-0.069,0.147-0.394,0.785,0.061c0.639,0.444,1.016,0.276,1.371,0.259
					c0.361-0.032,0.163-0.102,0.123-0.883c-0.049-0.78,0.308-0.542,0.574-0.78c0.257-0.237-0.267-0.593,0.257-0.663
					c0.52-0.068,1.157-0.268,1.084,0.237c-0.074,0.494,0.459,0.664,0.612,0.029c0.169-0.651,0.08-1.385,0.456-0.613
					c0.376,0.752,0.098,0.969,0.667,0.911c0.563-0.04,1.182,0.297,1.587,0.297c0.401,0,0.826,0.109,0.881-0.504
					c0.044-0.625-0.123-0.563,0.262-0.901c0.376-0.327,0.465-0.545,0.875-0.305c0.407,0.236-0.054,0.937,0.426,1.254
					c0.476,0.315,0.782,0.315,1.139,0.802c0.345,0.505,0.044,0.662,0.474,0.999c0.425,0.338,0.258,0.781,0.164,1.028
					c-0.09,0.218-0.293,1.147-0.925,0.534c-0.634-0.613-0.786-1.355-1.301-1.78c-0.52-0.415-0.52-0.831-0.976-0.871
					c-0.45-0.059-1.23,0.377-1.35,0.496c-0.123,0.117,0.308,0.473-0.123,0.851c-0.425,0.374-0.801,0.186-1.163,0
					c-0.351-0.188-2.012,0.048-2.245,0.117c-0.242,0.068-0.119-0.434-0.593,0.101c-0.475,0.523-0.287,0.968-0.193,1.235
					c0.095,0.269-0.332,0.494,0.544,0.545c0.88,0.04,0.855-0.269,1.024,0.157c0.163,0.435,0.326,0.417,0.826,0.079
					c0.503-0.335,1.019,0.138,1.048,0.276c0.02,0.148,0.494,2.117-0.604,1.819c0,0-0.623-0.098-1.073,0.179
					c-0.444,0.258-0.974,0.534-1.331,0.446c-0.351-0.09-0.365-0.13-0.528-0.316c-0.163-0.17-0.594-0.011-0.688-0.206
					c-0.085-0.2-0.321-0.219-0.653-0.219c-0.331-0.011-0.896-0.189-0.988-0.159c-0.109,0.039-0.643,0.021-0.659,0.218
					c-0.009,0.178,0.051,0.454-0.044,0.653c-0.089,0.207-0.904,0.426-1.231,0.128c-0.336-0.298-0.454-0.604-0.896-0.9
					c-0.445-0.317-1.019-0.266-1.107-0.266c-0.09,0-0.919,0.454-0.919-0.189c0-0.653,0.465-0.494,0.098-1.206
					c-0.365-0.712-0.618-0.803-1.341-0.446c-0.731,0.367-0.746,0.625-1.25,0.348c-0.505-0.269-0.535-0.315-1.078-0.04
					c-0.54,0.296-0.99,0.356-1.168,0.356c-0.167,0-1.043-0.17-1.35-0.099c-0.326,0.088-0.342,0.139-0.494,0.394
					c-0.164,0.258,0.073,0.16-0.514,0.417c-0.585,0.258-0.555,0.128-0.664,0.414c-0.104,0.288-0.039,0.487-0.039,0.585
					c0,0.099,0.06,0.298-0.04,0.444c-0.095,0.141-0.095,0.247-0.293,0.396c-0.207,0.138,0.046,0.011-0.463,0.188
					c-0.505,0.168-0.821,0.523-1.168,0.851c-0.347,0.348-0.568,0.763-1.246,1.424c-0.688,0.665-0.87,0.704-0.806,0.991
					c0.06,0.306,0.203,1.275,0.203,1.362c0,0.091,0.425-0.504-0.086,0.298c-0.503,0.811-0.701,1.058-0.701,1.058
					s-0.039,0.534-0.016,0.604c0.016,0.061-0.316,0.842,0.392,1.02c0.707,0.168,1.038-0.058,0.825,0.299
					c-0.232,0.346-0.242,0.403-0.158,0.581c0.08,0.168-0.287,0.596,0.119,0.712c0.409,0.109,0.346,0,0.386,0.386
					c0.023,0.396-0.386,0.635,0.144,0.732c0.52,0.1,0.173,0.339,0.821,0.495c0.647,0.159,0.89,0.643,1.246,0.879
					c0.361,0.239-0.238,0.534,0.252,0.428c0.489-0.108,0.683-0.595,1.444-0.435c0.752,0.148-0.351,0.879,1.147,0.454
					c1.503-0.426,1.092-1.247,2.022-0.931c0.935,0.316,1.038,0.931,1.39,0.931c0.341,0,0.094,0.178,0.776,0.207
					c0.678,0.011,0.713,0.505,0.772,0.533c0.063,0.029,0.795-1.384,0.667-0.148c-0.129,1.268,0.03,1.268-0.193,1.525
					c-0.223,0.266-0.06,0.236,0.124,0.839c0.197,0.593-0.138,1.198,0.87,1.573c1.019,0.377,1.107,0.338,1.059,0.971
					c-0.04,0.632-0.307,0.475,0.015,1.194c0.336,0.733,0.936,0.782,0.401,1.533c-0.539,0.773-0.771,0.683-1.157,1.108
					c-0.376,0.426-1.455-0.335-0.585,0.635c0.871,0.988,0.95,1.286,1.237,1.403c0.281,0.119,0.218,0.664,0.425,0.781
					c0.203,0.108-0.094,0.653,0.282,1.021c0.381,0.366,0.065,0.127,0.396,0.661c0.332,0.545-0.184,1.475,0.792,1.445
					c0.979-0.029,0.934,0.236,1.009,0.523c0.085,0.276,0.173,1.09,1.553,0.613c1.371-0.476,1.607-0.504,2.132-0.948
					c0.529-0.446,0.618,0.157,1.059-0.573c0.445-0.724,0.05-0.534,0.351-1.198c0.297-0.662,0.153-0.851,0.781-1.087
					c0.638-0.239,0.524,0.323,0.777-0.952c0.257-1.274-0.866-1.057,0.589-1.442c1.453-0.377,1.092,0,1.66-0.613
					c0.57-0.604,1.183-1.158,0.619-2.267c-0.574-1.126-0.179-1.275-0.134-2.136c0.054-0.869-0.139-0.909,0.252-1.395
					c0.401-0.494-0.391-0.901,0.035-1.157c0.43-0.246,0.761-0.119,0.886-0.751c0.128-0.636,0.188-0.396,0.79-0.871
					c0.6-0.477,0.916-0.546,1.183-1.088c0.272-0.555,0.638-1.267,0.761-1.92c0.124-0.651,0.175-0.76,0.426-0.989
					c0.252-0.207,0.427-0.275,0.252-0.683c-0.173-0.414-0.52-0.861-0.899-0.574c-0.376,0.287-0.425,0.556-0.677,0.604
					c-0.247,0.051-0.158-0.077-0.54,0.188c-0.376,0.269-0.315,0.545-0.712-0.011c-0.396-0.573-0.252,0-0.599-0.632
					c-0.351-0.633,0.252-0.375-0.395-0.92c-0.648-0.544-0.017-0.306-1.06-0.603c-1.044-0.276-0.82-0.534-1.044-1.177
					c-0.222-0.654-0.475-0.604-0.46-1.021c0.016-0.414,0.614-0.335,0.12-0.582c-0.511-0.258-0.376-0.563-0.847-1.09
					c-0.479-0.533-0.114-0.396-0.663-0.93c-0.554-0.542-0.864-1.217-0.207-1.314c0.663-0.12,2.151,1.453,2.186,1.819
					c0.025,0.356-0.272,0.563,0.209,0.851c0.469,0.276,0.721,1.028,0.929,1.424c0.208,0.396-0.351,0.457,0.837,0.952
					c1.186,0.482,1.329,0.552,1.329,0.868c0,0.298-0.761,0.791-0.207,0.675c0.554-0.102,0.287-0.396,1.166-0.141
					c0.891,0.257,0.743,0.178,0.906-0.534c0.153-0.712-0.016-0.84,0.568-1.076c0.584-0.239,0.88-0.338,1.088-0.803
					c0.208-0.476,0.52-0.851,0.569-0.89c0.044-0.04,0.078-0.199,0.173-0.346c0.094-0.159-0.238-0.525,0.064-1.129
					c0.297-0.593,0.144-1.294-0.332-0.829c-0.475,0.454-0.494,0.236-0.573,0.008c-0.074-0.218-0.396-0.425-0.692-0.117
					c-0.297,0.296,0.109,0.781-0.629,0.503c-0.746-0.287-0.588,0.051-1.157-0.741c-0.568-0.792-0.934-1.079-1.122-1.257
					c-0.188-0.168,0.139-0.644,0.139-0.644s0.415-0.287,0.584-0.077c0.178,0.208,0.162,0.474,0.306,0.582
					c0.144,0.109,0.476,0.247,0.683,0.348c0.198,0.088-0.351,0.296,0.426,0.434c0.771,0.12,1.088-0.255,1.454-0.255
					c0.361-0.021-0.1,0.356,0.647,0.156c0.742-0.178,1.059,0,1.469-0.316c0.416-0.334,0.015-0.692,0.6-0.366
					c0.588,0.316,0.79-0.178,0.899-0.029c0.119,0.139,0.1,0.89,0.315,1.05c0.224,0.156,0.065,0.534,0.916,0.978
					c0.855,0.436,0.746,1.555,1.029,1.674c0.285,0.139,0.053,0.483,0.604,0.959c0.554,0.473,0.479,0.8,0.608,1.108
					c0.152,0.316,0.385,1.076,0.558,0.454c0.178-0.632,0.223-0.85,0.109-1.533c-0.109-0.683-0.722-0.712-0.346-1.623
					c0.376-0.919,0.445-0.948,0.414-1.265c-0.038-0.316-0.108-1.99,0.095-2.197s0.281-0.534,0.505-0.494
					c0.218,0.051,0.554,0.396,0.741,0.593c0.192,0.218,0.223,0.762,0.302,1.187c0.054,0.316,0.286,0.495,0.425,0.575
					c0.436,1.95,0.677,3.966,0.677,6.055C130.102,44.166,127.041,51.009,122.086,55.954z"/>
			</g>
			<g>
				<path d="M78.134,8.161c0.583,0,0.919,0.139,0.919,0.434c0,0.355-0.201,0.573-0.588,0.573c-0.262,0-1.499,0.08-2.217,0.367
					c-1.952,0.811-2.985,3.876-4.229,7.883c-2.857,9.268-9.425,32.474-11.963,40.636c-1.69,5.409-2.018,6.289-2.734,6.289
					c-0.648,0-1.044-0.949-1.953-3.808l-12.74-40.556h-0.134c-2.34,6.993-11.251,33.711-13.597,40.497
					c-1.033,3.066-1.365,3.866-2.146,3.866c-0.647,0-0.974-0.8-2.273-5.766L12.899,15.311c-1.034-3.877-1.879-4.966-3.575-5.708
					C8.478,9.248,6.855,9.167,6.401,9.167c-0.326,0-0.589-0.068-0.589-0.513c0-0.355,0.391-0.505,1.043-0.505h14.368
					c0.919,0,1.177,0.229,1.177,0.505c0,0.444-0.327,0.513-0.652,0.513c-0.524,0-1.762,0-2.543,0.436
					c-0.381,0.229-0.841,0.822-0.841,1.762c0,0.949,0.589,3.502,1.242,6.718c0.974,4.657,7.739,31.444,8.71,35.31h0.132
					l13.794-41.591c0.975-2.989,1.231-3.364,1.622-3.364c0.45,0,0.841,0.96,1.622,3.44L58.43,53.244h0.258
					c1.755-6.706,7.745-27.874,10.014-37.21c0.653-2.692,0.718-3.72,0.718-4.669c0-1.307-0.718-2.197-3.709-2.197
					c-0.327,0-0.583-0.218-0.583-0.513c0-0.355,0.326-0.505,1.103-0.505L78.134,8.161z"/>
				<path d="M147.805,9.167c4.035,0,8.334,0.436,11.717,3.226c1.602,1.305,4.426,4.876,4.426,9.91
					c0,5.402-1.988,10.804-7.756,16.856c5.252,7.665,9.609,14.164,13.33,18.676c3.451,4.163,13.455,14.995,15.059,15.29
					c1.217,0.208,2.107,0.208,2.498,0.208c0.322,0,0.574,0.209,0.574,0.446c0,0.436-0.387,0.573-1.529,0.573h-4.555
					c-3.586,0-5.193-0.355-6.859-1.376c-2.756-1.69-12.24-15.28-15.891-20.762c-2.68-4.006-5.697-8.893-6.979-10.789
					c-0.258-0.298-0.455-0.437-0.836-0.437l-7.879-0.148c-0.316,0-0.443,0.218-0.443,0.585v1.748c0,7.004,0,12.772,0.314,15.838
					c0.199,2.106,0.58,3.729,2.498,4.007c0.9,0.146,2.311,0.295,2.889,0.295c0.375,0,0.514,0.218,0.514,0.436
					c0,0.374-0.322,0.574-1.027,0.574h-13.903c-0.703,0-1.024-0.139-1.024-0.574c0-0.218,0.128-0.436,0.504-0.436
					c0.585,0,1.352-0.149,1.93-0.295c1.281-0.278,1.604-1.9,1.859-4.007c0.322-3.065,0.322-8.834,0.322-15.838V30.335
					c0-11.393,0-13.423-0.129-15.767c-0.133-2.481-0.643-3.64-2.756-4.154c-0.508-0.146-1.603-0.216-2.176-0.216
					c-0.262,0-0.515-0.159-0.515-0.436c0-0.436,0.316-0.596,1.024-0.596H147.805z M142.682,36.686c0,0.356,0.127,0.653,0.443,0.871
					c0.959,0.653,3.912,1.167,6.727,1.167c1.533,0,3.334-0.218,4.803-1.385c2.25-1.762,3.912-5.688,3.912-11.236
					c0-9.121-4.234-14.6-11.084-14.6c-1.924,0-3.654,0.218-4.287,0.443c-0.322,0.141-0.514,0.446-0.514,0.883V36.686z"/>
				<path d="M196.891,9.149c0.836,0,1.221,0.139,1.221,0.585c0,0.287-0.297,0.425-0.613,0.425c-0.533,0-1.611,0.077-2.531,0.226
					c-2.217,0.367-2.84,1.613-2.988,4.167c-0.143,2.321-0.143,4.37-0.143,15.767v12.976c0,10.724,0.291,15.392,1.676,16.718
					c1.227,1.166,3.221,1.671,9.195,1.671c4.07,0,7.447-0.079,9.283-2.186c0.992-1.167,1.754-3.008,1.998-4.382
					c0.074-0.585,0.227-0.949,0.686-0.949c0.377,0,0.461,0.287,0.461,1.098c0,0.792-0.539,5.184-1.146,7.291
					c-0.545,1.679-1.258,1.788-5.322,1.788l-27.572-0.04c-0.846,0-1.227-0.139-1.227-0.571c0-0.217,0.148-0.447,0.613-0.447
					c0.688,0,1.607-0.148,2.301-0.286c1.533-0.297,1.918-1.9,2.225-4.015c0.385-3.066,0.385-8.823,0.385-15.838V30.318
					c0-11.396,0-13.445-0.158-15.767c-0.148-2.495-0.771-3.651-3.293-4.167c-0.607-0.148-1.924-0.226-2.605-0.226
					c-0.313,0-0.609-0.138-0.609-0.425c0-0.446,0.377-0.585,1.221-0.585H196.891z"/>
				<path d="M231.801,9.149c6.451,0,18.344-0.653,26.086,8.309c3.252,3.808,6.301,9.862,6.301,18.545
					c0,9.191-3.379,16.282-7.02,20.587c-2.799,3.272-8.645,7.785-19.703,7.785c-2.795,0-5.797-0.012-9.006-0.032l-11.811-0.029
					c-0.713,0-1.035-0.139-1.035-0.582c0-0.217,0.125-0.436,0.516-0.436c0.588,0,1.369-0.148,1.953-0.287
					c1.297-0.308,1.623-1.899,1.885-4.006c0.326-3.067,0.326-8.843,0.326-15.847V30.318c0-11.396,0-13.434-0.133-15.767
					c-0.129-2.484-0.648-3.641-2.799-4.156c-0.51-0.148-1.623-0.218-2.207-0.218c-0.256,0-0.523-0.156-0.523-0.443
					c0-0.436,0.322-0.585,1.049-0.585H231.801z M225.754,38.19c0,7.734,0.068,14.451,0.129,15.835
					c0.068,1.831,0.203,4.748,0.717,5.551c0.85,1.385,3.379,2.917,11.057,2.917c6.055,0,11.645-2.481,15.482-6.786
					c3.383-3.717,5.197-10.721,5.197-17.437c0-9.26-3.576-15.254-6.236-18.379c-6.123-7.229-13.531-8.25-21.271-8.25
					c-1.307,0-3.709,0.208-4.229,0.505c-0.584,0.287-0.777,0.662-0.777,1.454c-0.068,2.491-0.068,9.931-0.068,15.551V38.19z"/>
			</g>
		</g>
		<path d="M72.184,36.311c0-16.935,13.729-30.664,30.664-30.664l0,0c16.928,0,30.652,13.729,30.658,30.664l0,0
			c-0.006,16.925-13.73,30.653-30.658,30.653l0,0C85.913,66.964,72.184,53.236,72.184,36.311L72.184,36.311z M74.503,36.311
			c0.034,15.646,12.691,28.311,28.345,28.328l0,0c15.653-0.018,28.305-12.682,28.339-28.328l0,0
			c-0.034-15.649-12.686-28.31-28.339-28.339l0,0C87.194,8.001,74.537,20.662,74.503,36.311L74.503,36.311z"/>
	</g>
</g>
</svg>
