<?xml version="1.0" encoding="UTF-8"?>
<!-- Generator: Adobe Illustrator 16.0.0, SVG Export Plug-In . SVG Version: 6.00 Build 0)  -->
<!DOCTYPE svg PUBLIC "-//W3C//DTD SVG 1.1//EN" "http://www.w3.org/Graphics/SVG/1.1/DTD/svg11.dtd">
<svg version="1.1" id="圖層_1" xmlns="http://www.w3.org/2000/svg" xmlns:xlink="http://www.w3.org/1999/xlink" x="0px" y="0px" width="127.076px" height="28px" viewBox="0 0 127.076 28" enable-background="new 0 0 127.076 28" xml:space="preserve">
<g id="レイヤー_2_10_">
	<g id="top1_10_">
		<polygon fill="#60BFB6" points="47.9,15.678 37.549,15.678 37.549,10.993 49.176,10.993 49.176,7.439 33.596,7.439 33.596,26.964     37.549,26.964 37.549,19.232 47.9,19.232   "/>
		<polygon fill="#60BFB6" points="75.106,7.439 57.773,7.439 57.773,11.052 64.464,11.052 64.464,26.964 68.416,26.964     68.416,11.052 75.106,11.052   "/>
		<polygon fill="#60BFB6" points="99.51,18.861 99.51,15.395 89.275,15.395 89.275,10.906 100.786,10.906 100.786,7.439     85.341,7.439 85.341,26.964 100.932,26.964 100.932,23.496 89.275,23.496 89.275,18.861   "/>
		<polygon fill="#60BFB6" points="125.656,18.861 125.656,15.395 115.421,15.395 115.421,10.906 126.932,10.906 126.932,7.439     111.496,7.439 111.496,26.964 127.076,26.964 127.076,23.496 115.421,23.496 115.421,18.861   "/>
		<path fill="#60BFB6" d="M18.726,26.973h4.305l-9.739-19.29c-0.164-0.304-0.404-0.56-0.7-0.739c-0.599-0.361-1.349-0.361-1.946,0    c-0.298,0.182-0.539,0.441-0.703,0.749l-9.795,19.28h4.305l7.137-14.313L18.726,26.973z"/>
		<rect fill="#60BFB6" width="23.175" height="3.019"/>
	</g>
</g>
</svg>